<svg xmlns="http://www.w3.org/2000/svg" viewBox="0 0 600 800" preserveAspectRatio="xMidYMid slice"><rect width="600" height="800" fill="#F7EEEC"/><rect x="64" y="44" width="472" height="712" fill="#F0DEDA" opacity="0.55"/><path d="M248,196 C228,196 210,210 202,236 C214,242 226,244 238,242 C240,222 244,206 248,196 Z" fill="#E2B9B4"/><path d="M352,196 C372,196 390,210 398,236 C386,242 374,244 362,242 C360,222 356,206 352,196 Z" fill="#E2B9B4"/><path d="M248,196 C232,210 222,232 220,256 C246,330 256,360 256,408 C254,486 232,580 220,706 L300,712 L380,706 C368,580 346,486 344,408 C344,360 354,330 380,256 C378,232 368,210 352,196 C336,206 318,214 300,214 C282,214 264,206 248,196 Z" fill="#E2B9B4"/><path d="M276,212 C284,196 316,196 324,212 L318,182 C312,172 288,172 282,182 Z" fill="#E2B9B4" stroke="#5C1F25" stroke-width="3"/><path d="M300,216 C316,238 332,250 346,266 C350,290 350,320 348,360" fill="none" stroke="#5C1F25" stroke-width="3" stroke-linecap="round"/><circle cx="306" cy="226" r="4" fill="#5C1F25"/><circle cx="322" cy="244" r="4" fill="#5C1F25"/><circle cx="338" cy="262" r="4" fill="#5C1F25"/><circle cx="348" cy="300" r="4" fill="#5C1F25"/><circle cx="348" cy="338" r="4" fill="#5C1F25"/><path d="M300,712 L300,648" stroke="#F7EEEC" stroke-width="7" stroke-linecap="round"/></svg>